<?xml version="1.0" ?><svg xmlns="http://www.w3.org/2000/svg" xmlns:xlink="http://www.w3.org/1999/xlink" version="1.1" viewBox="0 0 512 512" style="enable-background:new 0 0 512 512;" xml:space="preserve"><g id="_x31_7_Vga_Card_x2C__Vga_x2C__Gpu_x2C__Graphic_Card_x2C__Video_Card"><g><g><g><path style="fill:#FFFFFF;" d="M471.155,130.981H281.002l-60.004,90.016H100.979v70.005h120.018l60.004,90.016      c38.507,0,151.441,0,190.153,0c16.505,0,29.883-13.378,29.883-29.883V160.864C501.037,144.359,487.66,130.981,471.155,130.981z"/><path style="fill:#CDDCF9;" d="M471.035,381.019v30.042c0,5.508-4.462,9.961-9.961,9.961h-20.091      c-5.498,0-9.961-4.453-9.961-9.961v-30.042H471.035z"/><ellipse transform="matrix(0.7071 -0.7071 0.7071 0.7071 -70.8861 340.8658)" style="fill:#FFFFFF;" cx="376.018" cy="256" rx="85.016" ry="85.016"/><circle style="fill:#FFFFFF;" cx="376.018" cy="256" r="25.002"/><path style="fill:#CDDCF9;" d="M381.019,381.019v30.042c0,5.508-4.462,9.961-9.961,9.961H250.96      c-5.498,0-9.961-4.453-9.961-9.961v-30.042h40.003H381.019z"/><polygon style="fill:#CDDCF9;" points="281.002,130.981 220.998,220.998 100.979,220.998 100.979,130.981     "/><path style="fill:#CDDCF9;" d="M220.998,291.002l60.004,90.016c-22.448,0-158.811,0-180.023,0v-90.016H220.998z"/><path style="fill:#CDDCF9;" d="M190.985,381.019v30.042c0,5.508-4.453,9.961-9.961,9.961h-20.081      c-5.498,0-9.961-4.453-9.961-9.961v-30.042H190.985z"/><path style="fill:#FFFFFF;" d="M100.979,291.002c0,13.32,0,119.289,0,140.02H60.966c0-33.377,0-66.612,0-100.007v-60.014      v-90.016v-50.004c0-5.528-4.472-10.001-10.001-10.001H20.964c-5.518,0-10.001-4.482-10.001-10.001V90.978      c0-5.528,4.482-10.001,10.001-10.001h70.015c5.518,0,10.001,4.472,10.001,10.001c0,15.289,0,114.013,0,130.019V291.002z"/><path style="fill:#FFFFFF;" d="M60.966,331.015v60.004H30.924c-5.498,0-9.961-4.462-9.961-9.961v-40.083      c0-5.508,4.462-9.961,9.961-9.961H60.966z"/><path style="fill:#FFFFFF;" d="M60.966,180.985v90.016H30.924c-5.498,0-9.961-4.462-9.961-9.961v-70.095      c0-5.498,4.462-9.961,9.961-9.961H60.966z"/></g></g><g><g><g id="XMLID_652_"><path style="fill:#487FE9;" d="M471.155,390.979H100.976c-5.501,0-9.961-4.46-9.961-9.961V130.981       c0-5.501,4.46-9.961,9.961-9.961h370.178c21.969,0,39.843,17.874,39.843,39.843v190.272       C510.998,373.105,493.124,390.979,471.155,390.979z M110.937,371.058h360.217c10.985,0,19.922-8.937,19.922-19.922V160.864       c0-10.985-8.937-19.922-19.922-19.922H110.937V371.058z"/></g><g id="XMLID_649_"><path style="fill:#487FE9;" d="M376.019,350.974c-52.369,0-94.974-42.605-94.974-94.974s42.605-94.974,94.974-94.974       c52.368,0,94.974,42.605,94.974,94.974S428.387,350.974,376.019,350.974z M376.019,180.948       c-41.384,0-75.053,33.668-75.053,75.052s33.668,75.052,75.053,75.052c41.383,0,75.052-33.668,75.052-75.052       S417.402,180.948,376.019,180.948z"/></g><g id="XMLID_640_"><path style="fill:#487FE9;" d="M376.019,290.964c-19.28,0-34.965-15.684-34.965-34.964s15.685-34.964,34.965-34.964       c19.28,0,34.964,15.684,34.964,34.964S395.298,290.964,376.019,290.964z M376.019,240.958c-8.295,0-15.043,6.748-15.043,15.042       s6.749,15.042,15.043,15.042s15.042-6.748,15.042-15.042S384.313,240.958,376.019,240.958z"/></g><g id="XMLID_639_"><path style="fill:#487FE9;" d="M376.019,240.958c-5.501,0-9.961-4.46-9.961-9.961v-60.009c0-5.501,4.46-9.961,9.961-9.961       c5.501,0,9.961,4.46,9.961,9.961v60.009C385.98,236.498,381.52,240.958,376.019,240.958z"/></g><g id="XMLID_638_"><path style="fill:#487FE9;" d="M349.16,257.747l-57.072-18.544c-5.232-1.7-8.095-7.32-6.396-12.551       c1.7-5.233,7.321-8.093,12.551-6.396l57.072,18.544c5.232,1.7,8.095,7.32,6.396,12.551       C360.018,256.565,354.414,259.452,349.16,257.747z"/></g><g id="XMLID_636_"><path style="fill:#487FE9;" d="M320.194,332.835c-4.45-3.233-5.437-9.463-2.203-13.913l35.273-48.549       c3.233-4.451,9.464-5.436,13.913-2.203c4.45,3.233,5.437,9.463,2.203,13.913l-35.273,48.548       C330.87,335.089,324.639,336.065,320.194,332.835z"/></g><g id="XMLID_633_"><path style="fill:#487FE9;" d="M417.929,330.632l-35.273-48.548c-3.233-4.45-2.247-10.68,2.203-13.913       c4.448-3.233,10.681-2.249,13.913,2.203l35.273,48.549c3.233,4.45,2.247,10.68-2.203,13.913       C427.422,336.049,421.183,335.112,417.929,330.632z"/></g><g id="XMLID_620_"><path style="fill:#487FE9;" d="M390.325,251.351c-1.699-5.231,1.163-10.851,6.396-12.551l57.072-18.544       c5.233-1.698,10.852,1.163,12.551,6.396c1.699,5.231-1.163,10.851-6.396,12.551l-57.072,18.544       C397.616,259.454,392.017,256.559,390.325,251.351z"/></g><g id="XMLID_619_"><path style="fill:#487FE9;" d="M272.716,386.544l-57.051-85.578H100.976c-5.501,0-9.961-4.46-9.961-9.961v-70.01       c0-5.501,4.46-9.961,9.961-9.961h114.688l57.051-85.578c3.051-4.579,9.235-5.815,13.813-2.763       c4.578,3.051,5.814,9.235,2.763,13.813l-60.008,90.014c-1.847,2.771-4.957,4.436-8.288,4.436H110.937v50.088h110.058       c3.331,0,6.441,1.664,8.288,4.436l60.008,90.014c3.051,4.578,1.815,10.761-2.763,13.813       C281.971,392.344,275.78,391.142,272.716,386.544z"/></g><g id="XMLID_618_"><path style="fill:#487FE9;" d="M100.976,440.987H60.97c-5.501,0-9.961-4.46-9.961-9.961V130.981l-30.045-0.041       c-11.008,0-19.963-8.955-19.963-19.963V90.975c0-11.007,8.955-19.962,19.963-19.962h70.01c11.008,0,19.963,8.955,19.963,19.962       v340.052C110.937,436.527,106.477,440.987,100.976,440.987z M70.931,421.065h20.084V90.975l-70.051-0.04l-0.041,0.04v20.003       l30.045,0.041c11.008,0,19.963,8.955,19.963,19.963V421.065z"/></g><g id="XMLID_614_"><path style="fill:#487FE9;" d="M60.97,280.963H30.925c-10.985,0-19.922-8.937-19.922-19.922V190.95       c0-10.985,8.937-19.922,19.922-19.922H60.97c5.501,0,9.961,4.46,9.961,9.961c0,5.501-4.46,9.961-9.961,9.961H30.925v70.092       H60.97c5.501,0,9.961,4.46,9.961,9.961C70.931,276.503,66.471,280.963,60.97,280.963z"/></g><g id="XMLID_611_"><path style="fill:#487FE9;" d="M60.97,400.981H30.925c-10.985,0-19.922-8.937-19.922-19.922v-40.088       c0-10.985,8.937-19.922,19.922-19.922H60.97c5.501,0,9.961,4.46,9.961,9.961s-4.46,9.961-9.961,9.961H30.925v40.088H60.97       c5.501,0,9.961,4.46,9.961,9.961S66.471,400.981,60.97,400.981z"/></g><g id="XMLID_610_"><path style="fill:#487FE9;" d="M181.029,430.986h-20.084c-10.985,0-19.922-8.937-19.922-19.922v-30.046       c0-5.501,4.46-9.961,9.961-9.961c5.501,0,9.961,4.46,9.961,9.961v30.046h20.084v-30.046c0-5.501,4.46-9.961,9.961-9.961       c5.501,0,9.961,4.46,9.961,9.961v30.046C200.951,422.05,192.014,430.986,181.029,430.986z"/></g><g id="XMLID_609_"><path style="fill:#487FE9;" d="M461.072,430.986h-20.085c-10.985,0-19.922-8.937-19.922-19.922v-30.046       c0-5.501,4.46-9.961,9.961-9.961s9.961,4.46,9.961,9.961v30.046h20.085v-30.046c0-5.501,4.46-9.961,9.961-9.961       s9.961,4.46,9.961,9.961v30.046C480.994,422.05,472.057,430.986,461.072,430.986z"/></g><g id="XMLID_608_"><path style="fill:#487FE9;" d="M371.058,430.986H250.958c-10.985,0-19.922-8.937-19.922-19.922v-30.046       c0-5.501,4.46-9.961,9.961-9.961c5.501,0,9.961,4.46,9.961,9.961v30.046h120.099v-30.046c0-5.501,4.46-9.961,9.961-9.961       c5.501,0,9.961,4.46,9.961,9.961v30.046C390.979,422.05,382.043,430.986,371.058,430.986z"/></g></g></g></g></g><g id="Layer_1"/></svg>