<svg width="150" height="150" viewBox="0 0 150 150" fill="none" xmlns="http://www.w3.org/2000/svg">
<path d="M0 0H150V150H0V0Z" fill="black"/>
<path d="M4.96875 117.531H0.75V116.688L5.25 110.125H6.1875V116.594H7.40625V117.531H6.1875V119.969H4.96875V117.531ZM4.96875 116.594V112.094L2.0625 116.594H4.96875Z" fill="white"/>
<path d="M7.96875 109V31.0938H9V109H7.96875ZM11.3438 109V31.0938H12.375V109H11.3438ZM11.8125 120.062C11.1875 120.062 10.6562 119.969 10.2188 119.781C9.78125 119.531 9.4375 119.219 9.1875 118.844C8.9375 118.406 8.8125 117.938 8.8125 117.438C8.8125 116.875 9 116.344 9.375 115.844C9.75 115.344 10.2188 114.969 10.7812 114.719C10.3438 114.469 9.96875 114.156 9.65625 113.781C9.40625 113.344 9.28125 112.906 9.28125 112.469C9.28125 111.719 9.5 111.125 9.9375 110.688C10.4375 110.25 11.0938 110.031 11.9062 110.031C12.7812 110.031 13.4375 110.25 13.875 110.688C14.3125 111.125 14.5312 111.688 14.5312 112.375C14.5312 112.812 14.375 113.25 14.0625 113.688C13.75 114.125 13.375 114.469 12.9375 114.719C13.5 114.969 13.9688 115.344 14.3438 115.844C14.6562 116.344 14.8125 116.875 14.8125 117.438C14.8125 117.938 14.6875 118.375 14.4375 118.75C14.1875 119.188 13.8438 119.531 13.4062 119.781C12.9688 119.969 12.4375 120.062 11.8125 120.062ZM12.0938 114.344C12.4688 114.094 12.7812 113.781 13.0312 113.406C13.2812 113.094 13.4062 112.75 13.4062 112.375C13.4062 111.938 13.2812 111.594 13.0312 111.344C12.7188 111.094 12.3438 110.969 11.9062 110.969C11.4062 110.969 11 111.094 10.6875 111.344C10.4375 111.594 10.3125 111.906 10.3125 112.281C10.3125 112.719 10.4688 113.094 10.7812 113.406C11.0312 113.656 11.4688 113.969 12.0938 114.344ZM11.8125 119.125C12.4375 119.125 12.9062 118.969 13.2188 118.656C13.5312 118.344 13.6875 117.938 13.6875 117.438C13.6875 116.938 13.5 116.469 13.125 116.031C12.75 115.656 12.25 115.375 11.625 115.188C11.125 115.375 10.7188 115.656 10.4062 116.031C10.0938 116.469 9.9375 116.906 9.9375 117.344C9.9375 117.844 10.125 118.25 10.5 118.562C10.8125 118.938 11.25 119.125 11.8125 119.125Z" fill="white"/>
<path d="M67.0118 57.544V109H60.0998L58.8518 102.184H58.4678C57.3798 103.976 55.9718 105.448 54.2438 106.6C52.5158 107.752 50.6278 108.584 48.5798 109.096C46.5317 109.672 44.3878 109.96 42.1478 109.96C38.0518 109.96 34.5958 109.32 31.7798 108.04C29.0278 106.696 26.9478 104.648 25.5398 101.896C24.1318 99.144 23.4277 95.592 23.4277 91.24V57.544H31.9718V90.664C31.9718 94.76 32.8998 97.832 34.7558 99.88C36.6118 101.928 39.4918 102.952 43.3958 102.952C47.2358 102.952 50.2437 102.248 52.4198 100.84C54.6597 99.368 56.2277 97.256 57.1237 94.504C58.0837 91.688 58.5638 88.296 58.5638 84.328V57.544H67.0118Z" fill="white"/>
<path d="M77.625 119.969C78.5625 116.969 79.5625 114.031 80.625 111.156H76.4062V110.125H82.0312V110.781C80.7188 114.031 79.6562 117.094 78.8438 119.969H77.625Z" fill="white"/>
<path d="M83.1562 109V31.0938H84.1875V109H83.1562ZM86.5312 109V31.0938H87.5625V109H86.5312ZM87 120.062C86.375 120.062 85.8438 119.969 85.4062 119.781C84.9688 119.531 84.625 119.219 84.375 118.844C84.125 118.406 84 117.938 84 117.438C84 116.875 84.1875 116.344 84.5625 115.844C84.9375 115.344 85.4062 114.969 85.9688 114.719C85.5312 114.469 85.1562 114.156 84.8438 113.781C84.5938 113.344 84.4688 112.906 84.4688 112.469C84.4688 111.719 84.6875 111.125 85.125 110.688C85.625 110.25 86.2812 110.031 87.0938 110.031C87.9688 110.031 88.625 110.25 89.0625 110.688C89.5 111.125 89.7188 111.688 89.7188 112.375C89.7188 112.812 89.5625 113.25 89.25 113.688C88.9375 114.125 88.5625 114.469 88.125 114.719C88.6875 114.969 89.1562 115.344 89.5312 115.844C89.8438 116.344 90 116.875 90 117.438C90 117.938 89.875 118.375 89.625 118.75C89.375 119.188 89.0312 119.531 88.5938 119.781C88.1562 119.969 87.625 120.062 87 120.062ZM87.2812 114.344C87.6562 114.094 87.9688 113.781 88.2188 113.406C88.4688 113.094 88.5938 112.75 88.5938 112.375C88.5938 111.938 88.4688 111.594 88.2188 111.344C87.9062 111.094 87.5312 110.969 87.0938 110.969C86.5938 110.969 86.1875 111.094 85.875 111.344C85.625 111.594 85.5 111.906 85.5 112.281C85.5 112.719 85.6562 113.094 85.9688 113.406C86.2188 113.656 86.6562 113.969 87.2812 114.344ZM87 119.125C87.625 119.125 88.0938 118.969 88.4062 118.656C88.7188 118.344 88.875 117.938 88.875 117.438C88.875 116.938 88.6875 116.469 88.3125 116.031C87.9375 115.656 87.4375 115.375 86.8125 115.188C86.3125 115.375 85.9062 115.656 85.5938 116.031C85.2812 116.469 85.125 116.906 85.125 117.344C85.125 117.844 85.3125 118.25 85.6875 118.562C86 118.938 86.4375 119.125 87 119.125Z" fill="white"/>
<path d="M94.9688 120.062C94.3438 120.062 93.8125 119.969 93.375 119.781C92.9375 119.531 92.5938 119.219 92.3438 118.844C92.0938 118.406 91.9688 117.938 91.9688 117.438C91.9688 116.875 92.1562 116.344 92.5312 115.844C92.9062 115.344 93.375 114.969 93.9375 114.719C93.5 114.469 93.125 114.156 92.8125 113.781C92.5625 113.344 92.4375 112.906 92.4375 112.469C92.4375 111.719 92.6562 111.125 93.0938 110.688C93.5938 110.25 94.25 110.031 95.0625 110.031C95.9375 110.031 96.5938 110.25 97.0312 110.688C97.4688 111.125 97.6875 111.688 97.6875 112.375C97.6875 112.812 97.5312 113.25 97.2188 113.688C96.9062 114.125 96.5312 114.469 96.0938 114.719C96.6562 114.969 97.125 115.344 97.5 115.844C97.8125 116.344 97.9688 116.875 97.9688 117.438C97.9688 117.938 97.8438 118.375 97.5938 118.75C97.3438 119.188 97 119.531 96.5625 119.781C96.125 119.969 95.5938 120.062 94.9688 120.062ZM95.25 114.344C95.625 114.094 95.9375 113.781 96.1875 113.406C96.4375 113.094 96.5625 112.75 96.5625 112.375C96.5625 111.938 96.4375 111.594 96.1875 111.344C95.875 111.094 95.5 110.969 95.0625 110.969C94.5625 110.969 94.1562 111.094 93.8438 111.344C93.5938 111.594 93.4688 111.906 93.4688 112.281C93.4688 112.719 93.625 113.094 93.9375 113.406C94.1875 113.656 94.625 113.969 95.25 114.344ZM94.9688 119.125C95.5938 119.125 96.0625 118.969 96.375 118.656C96.6875 118.344 96.8438 117.938 96.8438 117.438C96.8438 116.938 96.6562 116.469 96.2812 116.031C95.9062 115.656 95.4062 115.375 94.7812 115.188C94.2812 115.375 93.875 115.656 93.5625 116.031C93.25 116.469 93.0938 116.906 93.0938 117.344C93.0938 117.844 93.2812 118.25 93.6562 118.562C93.9688 118.938 94.4062 119.125 94.9688 119.125Z" fill="white"/>
<path d="M103.875 117.531H99.6562V116.688L104.156 110.125H105.094V116.594H106.312V117.531H105.094V119.969H103.875V117.531ZM103.875 116.594V112.094L100.969 116.594H103.875Z" fill="white"/>
<path d="M106.781 109V31.0938H110.156V109H106.781ZM112.406 109V31.0938H113.531V109H112.406ZM110.719 110.031C111.656 110.031 112.406 110.5 112.969 111.438C113.469 112.312 113.719 113.531 113.719 115.094C113.719 116.719 113.469 117.969 112.969 118.844C112.469 119.719 111.719 120.156 110.719 120.156C109.719 120.156 108.969 119.719 108.469 118.844C107.969 117.969 107.719 116.719 107.719 115.094C107.719 113.531 107.969 112.312 108.469 111.438C109.031 110.5 109.781 110.031 110.719 110.031ZM110.719 111.062C110.094 111.062 109.625 111.406 109.312 112.094C109 112.844 108.844 113.844 108.844 115.094C108.844 115.781 108.875 116.375 108.938 116.875L112.312 112.562C112.125 112.062 111.906 111.688 111.656 111.438C111.406 111.188 111.094 111.062 110.719 111.062ZM110.719 119.125C111.344 119.125 111.812 118.781 112.125 118.094C112.438 117.406 112.594 116.406 112.594 115.094C112.594 114.469 112.562 113.938 112.5 113.5L109.219 117.719C109.531 118.656 110.031 119.125 110.719 119.125Z" fill="white"/>
<path d="M117.094 119.969C118.031 116.969 119.031 114.031 120.094 111.156H115.875V110.125H121.5V110.781C120.188 114.031 119.125 117.094 118.312 119.969H117.094Z" fill="white"/>
<path d="M122.531 109V31.0938H123.656V109H122.531ZM124.781 109V31.0938H128.156V109H124.781ZM127.5 117.531H123.281V116.688L127.781 110.125H128.719V116.594H129.938V117.531H128.719V119.969H127.5V117.531ZM127.5 116.594V112.094L124.594 116.594H127.5Z" fill="white"/>
<path d="M134.344 120.062C133.719 120.062 133.188 119.969 132.75 119.781C132.312 119.531 131.969 119.219 131.719 118.844C131.469 118.406 131.344 117.938 131.344 117.438C131.344 116.875 131.531 116.344 131.906 115.844C132.281 115.344 132.75 114.969 133.312 114.719C132.875 114.469 132.5 114.156 132.188 113.781C131.938 113.344 131.812 112.906 131.812 112.469C131.812 111.719 132.031 111.125 132.469 110.688C132.969 110.25 133.625 110.031 134.438 110.031C135.312 110.031 135.969 110.25 136.406 110.688C136.844 111.125 137.062 111.688 137.062 112.375C137.062 112.812 136.906 113.25 136.594 113.688C136.281 114.125 135.906 114.469 135.469 114.719C136.031 114.969 136.5 115.344 136.875 115.844C137.188 116.344 137.344 116.875 137.344 117.438C137.344 117.938 137.219 118.375 136.969 118.75C136.719 119.188 136.375 119.531 135.938 119.781C135.5 119.969 134.969 120.062 134.344 120.062ZM134.625 114.344C135 114.094 135.312 113.781 135.562 113.406C135.812 113.094 135.938 112.75 135.938 112.375C135.938 111.938 135.812 111.594 135.562 111.344C135.25 111.094 134.875 110.969 134.438 110.969C133.938 110.969 133.531 111.094 133.219 111.344C132.969 111.594 132.844 111.906 132.844 112.281C132.844 112.719 133 113.094 133.312 113.406C133.562 113.656 134 113.969 134.625 114.344ZM134.344 119.125C134.969 119.125 135.438 118.969 135.75 118.656C136.062 118.344 136.219 117.938 136.219 117.438C136.219 116.938 136.031 116.469 135.656 116.031C135.281 115.656 134.781 115.375 134.156 115.188C133.656 115.375 133.25 115.656 132.938 116.031C132.625 116.469 132.469 116.906 132.469 117.344C132.469 117.844 132.656 118.25 133.031 118.562C133.344 118.938 133.781 119.125 134.344 119.125Z" fill="white"/>
</svg>
